<svg width="22" height="22" viewBox="0 0 22 22" fill="none" xmlns="http://www.w3.org/2000/svg">
<path fill-rule="evenodd" clip-rule="evenodd" d="M10.9998 2.3957C6.24777 2.3957 2.39545 6.24802 2.39545 11.0001C2.39545 15.7522 6.24777 19.6045 10.9998 19.6045C15.7519 19.6045 19.6042 15.7522 19.6042 11.0001C19.6042 6.24802 15.7519 2.3957 10.9998 2.3957ZM0.615234 11.0001C0.615234 5.26483 5.26458 0.615479 10.9998 0.615479C16.7351 0.615479 21.3845 5.26483 21.3845 11.0001C21.3845 16.7354 16.7351 21.3847 10.9998 21.3847C5.26458 21.3847 0.615234 16.7354 0.615234 11.0001Z" fill="currentColor"/>
<path fill-rule="evenodd" clip-rule="evenodd" d="M9.63476 7.80608C8.52679 8.7176 7.78659 9.99967 7.55117 11.415L7.03142 14.5396C6.76152 16.1623 8.64824 17.2516 9.91853 16.2065L12.3647 14.1941C13.4727 13.2825 14.2129 12.0005 14.4483 10.5852L14.968 7.4605C15.2379 5.83787 13.3512 4.74857 12.0809 5.79362L9.63476 7.80608ZM10.9998 9.21987C10.0167 9.21987 9.21963 10.0169 9.21963 11.0001C9.21963 11.9833 10.0167 12.7803 10.9998 12.7803C11.983 12.7803 12.7801 11.9833 12.7801 11.0001C12.7801 10.0169 11.983 9.21987 10.9998 9.21987Z" fill="currentColor"/>
</svg>
